<svg xmlns="http://www.w3.org/2000/svg" width="791" height="183" fill="none" viewBox="0 0 791 183"><path fill="#6366F1" d="M135.8 89.2L134.357 84.4127L129.429 85.8979L131.057 90.7811L135.8 89.2ZM150.8 139.4L151.518 144.348L157.038 143.547L155.641 138.147L150.8 139.4ZM114.2 144.2L109.478 142.557L106.856 150.091L114.779 149.166L114.2 144.2ZM152.6 6.99999L157.486 8.06214L158.633 2.78706L153.285 2.04718L152.6 6.99999ZM120.8 2.59999L121.485 -2.35282L116.845 -2.9949L115.902 1.59397L120.8 2.59999ZM90.8 115.4L86.5391 118.016L92.2098 127.251L95.5557 116.944L90.8 115.4ZM69.8 81.2V76.2H60.8625L65.5391 83.8163L69.8 81.2ZM92.4 81.2V86.2H97.4V81.2H92.4ZM92.4 55.8H97.4V50.8H92.4V55.8ZM62.8 55.8H57.8V60.8H62.8V55.8ZM62.8 29.6L61.978 24.668L57.8 25.3644V29.6H62.8ZM92 23.2L93.4167 27.9951L98.5233 26.4863L96.6966 21.4847L92 23.2ZM83.6 0.199998L88.2966 -1.51527L86.7529 -5.7421L82.3873 -4.65071L83.6 0.199998ZM6.8 11L6.6093 6.00363L1.25163 6.20812L1.82909 11.5385L6.8 11ZM9.4 35L4.42909 35.5385L4.93958 40.2507L9.67232 39.9926L9.4 35ZM34 33.4H39V27.8137L33.4478 28.4306L34 33.4ZM34 55.8V60.8H39V55.8H34ZM4.4 55.8V50.8H-0.599999V55.8H4.4ZM4.4 81.2H-0.599999V86.2H4.4V81.2ZM29.8 81.2L34.5533 82.7511L36.6911 76.2H29.8V81.2ZM0.2 134.6L-3.66771 131.431L-5.87715 134.128L-4.11052 137.134L0.2 134.6ZM15.6 160.8L11.2895 163.334L14.9687 169.593L19.5043 163.923L15.6 160.8ZM34 126H39L29.2838 124.339L34 126ZM34 180.6H29V185.6H34V180.6ZM62.8 180.6V185.6H67.8V180.6H62.8ZM62.8 112.6L67.2721 110.364L57.8 112.6H62.8ZM73.4 136L68.7799 137.912L71.2613 143.908L76.4268 139.98L73.4 136ZM87.6 125.2L92.3105 126.877L97.9432 111.052L84.5732 121.22L87.6 125.2ZM83.4 137L78.6895 135.323L78.6851 135.336L83.4 137ZM79.8 147.2L80.0539 152.194L83.3999 152.023L84.515 148.864L79.8 147.2ZM68 147.8L67.7461 142.806L62.6629 143.065L63.0118 148.143L68 147.8ZM69.8 174L64.8118 174.343L65.1496 179.26L70.0717 178.993L69.8 174ZM157.4 163.8L162.271 162.671L161.205 158.07L156.55 158.873L157.4 163.8ZM161.2 180.2L156.329 181.329L157.523 186.48L162.599 185L161.2 180.2ZM191.4 171.4L192.799 176.2L197.278 174.895L196.286 170.336L191.4 171.4ZM165 80.4L169.706 78.7107L168.102 74.243L163.557 75.6127L165 80.4ZM131.057 90.7811C136.431 106.903 141.595 123.79 145.96 140.653L155.641 138.147C151.205 121.01 145.969 103.897 140.543 87.6189L131.057 90.7811ZM150.082 134.452C137.726 136.245 125.573 137.839 113.621 139.234L114.779 149.166C126.827 147.761 139.074 146.155 151.518 144.348L150.082 134.452ZM118.922 145.843C134.794 100.237 147.447 54.2411 157.486 8.06214L147.714 5.93785C137.753 51.7589 125.206 97.3635 109.478 142.557L118.922 145.843ZM153.285 2.04718L121.485 -2.35282L120.115 7.5528L151.915 11.9528L153.285 2.04718ZM115.902 1.59397C108.342 38.4012 98.3906 75.8217 86.0443 113.856L95.5557 116.944C108.009 78.5783 118.058 40.7988 125.698 3.60601L115.902 1.59397ZM95.0609 112.784C88.0609 101.384 81.0609 89.9837 74.0609 78.5837L65.5391 83.8163C72.5391 95.2163 79.5392 106.616 86.5391 118.016L95.0609 112.784ZM69.8 86.2H92.4V76.2H69.8V86.2ZM97.4 81.2V55.8H87.4V81.2H97.4ZM92.4 50.8H62.8V60.8H92.4V50.8ZM67.8 55.8V29.6H57.8V55.8H67.8ZM63.622 34.532C74.528 32.7143 84.347 30.6748 93.4167 27.9951L90.5833 18.4049C82.053 20.9252 72.672 22.8857 61.978 24.668L63.622 34.532ZM96.6966 21.4847L88.2966 -1.51527L78.9034 1.91527L87.3034 24.9153L96.6966 21.4847ZM82.3873 -4.65071C57.9357 1.46218 32.4789 5.01624 6.6093 6.00363L6.9907 15.9964C33.5211 14.9837 59.6643 11.3378 84.8127 5.05071L82.3873 -4.65071ZM1.82909 11.5385L4.42909 35.5385L14.3709 34.4615L11.7709 10.4615L1.82909 11.5385ZM9.67232 39.9926C20.5658 39.3984 28.9709 38.9896 34.5522 38.3694L33.4478 28.4306C28.2291 29.0104 20.2342 29.4016 9.12768 30.0074L9.67232 39.9926ZM29 33.4V55.8H39V33.4H29ZM34 50.8H4.4V60.8H34V50.8ZM-0.599999 55.8V81.2H9.4V55.8H-0.599999ZM4.4 86.2H29.8V76.2H4.4V86.2ZM25.0467 79.6489C19.0484 98.0306 9.55902 115.287 -3.66771 131.431L4.06771 137.769C18.041 120.713 28.1516 102.369 34.5533 82.7511L25.0467 79.6489ZM-4.11052 137.134L11.2895 163.334L19.9105 158.266L4.51052 132.066L-4.11052 137.134ZM19.5043 163.923C27.1315 154.389 33.5751 142.261 38.7162 127.661L29.2838 124.339C24.4249 138.139 18.4685 149.211 11.6957 157.677L19.5043 163.923ZM29 126V180.6H39V126H29ZM34 185.6H62.8V175.6H34V185.6ZM67.8 180.6V112.6H57.8V180.6H67.8ZM58.3279 114.836C61.0648 120.31 66.416 132.199 68.7799 137.912L78.0201 134.088C75.584 128.201 70.1352 116.09 67.2721 110.364L58.3279 114.836ZM76.4268 139.98L90.6268 129.18L84.5732 121.22L70.3732 132.02L76.4268 139.98ZM82.8895 123.523L78.6895 135.323L88.1105 138.677L92.3105 126.877L82.8895 123.523ZM78.6851 135.336L75.0851 145.536L84.515 148.864L88.115 138.664L78.6851 135.336ZM79.5461 142.206L67.7461 142.806L68.2539 152.794L80.0539 152.194L79.5461 142.206ZM63.0118 148.143L64.8118 174.343L74.7882 173.657L72.9882 147.457L63.0118 148.143ZM70.0717 178.993C99.6977 177.38 129.093 173.754 158.25 168.727L156.55 158.873C127.707 163.846 98.7023 167.42 69.5283 169.007L70.0717 178.993ZM152.529 164.929L156.329 181.329L166.071 179.071L162.271 162.671L152.529 164.929ZM162.599 185L192.799 176.2L190.001 166.6L159.801 175.4L162.599 185ZM196.286 170.336C189.836 140.707 180.973 110.098 169.706 78.7107L160.294 82.0893C171.427 113.102 180.164 143.293 186.514 172.464L196.286 170.336ZM163.557 75.6127L134.357 84.4127L137.243 93.9873L166.443 85.1873L163.557 75.6127ZM348 151.4L352.351 153.864L355.027 149.139L350.098 146.861L348 151.4ZM305.6 111L300.726 112.114L300.734 112.149L300.742 112.183L305.6 111ZM325.2 46.4L324.831 41.4136L322.366 41.5959L321.014 43.6661L325.2 46.4ZM376.6 42.6L376.969 47.5864L381.952 47.218L381.587 42.2343L376.6 42.6ZM374.4 12.6L379.387 12.2343L379.02 7.23153L374.018 7.61459L374.4 12.6ZM236 23.2L231.023 23.674L231.488 28.5602L236.382 28.1854L236 23.2ZM234.8 10.6L239.777 10.1259L239.31 5.21791L234.396 5.61635L234.8 10.6ZM212.6 12.4L212.196 7.41635L207.191 7.82213L207.618 12.825L212.6 12.4ZM216.2 54.6L211.218 55.025L211.64 59.9677L216.586 59.5851L216.2 54.6ZM286 49.2L290.458 51.4648L294.49 43.5282L285.614 44.2149L286 49.2ZM274.2 118.4L269.326 119.514L269.329 119.528L269.332 119.541L274.2 118.4ZM331.8 180L329.62 184.5L333.84 186.544L336.151 182.464L331.8 180ZM353.2 102.6L354.022 107.532L359.051 106.694L358.115 101.683L353.2 102.6ZM347.6 72.6L352.515 71.6825L351.588 66.7138L346.629 67.6951L347.6 72.6ZM328.4 76.4L327.429 71.4951L322.559 72.459L323.488 77.3356L328.4 76.4ZM334 105.8L329.088 106.736L330.003 111.535L334.822 110.732L334 105.8ZM380.2 104.2L381.081 109.122L386.002 108.241L385.122 103.32L380.2 104.2ZM374.8 74L379.722 73.1199L378.815 68.0452L373.77 69.1072L374.8 74ZM355.8 78L354.77 73.1072L350.008 74.1098L350.881 78.8973L355.8 78ZM361.2 107.6L356.281 108.497L357.176 113.4L362.081 112.522L361.2 107.6ZM350.098 146.861C326.744 136.067 313.709 123.161 310.458 109.817L300.742 112.183C305.091 130.039 321.656 144.733 345.902 155.939L350.098 146.861ZM310.474 109.886C308.36 100.637 309.795 90.4039 313.516 79.8358C317.23 69.2885 323.097 58.7651 329.386 49.1339L321.014 43.6661C314.503 53.6349 308.17 64.9115 304.084 76.5142C300.005 88.096 298.04 100.363 300.726 112.114L310.474 109.886ZM325.569 51.3864L376.969 47.5864L376.231 37.6136L324.831 41.4136L325.569 51.3864ZM381.587 42.2343L379.387 12.2343L369.413 12.9657L371.613 42.9657L381.587 42.2343ZM374.018 7.61459L235.618 18.2146L236.382 28.1854L374.782 17.5854L374.018 7.61459ZM240.977 22.7259L239.777 10.1259L229.823 11.074L231.023 23.674L240.977 22.7259ZM234.396 5.61635L212.196 7.41635L213.004 17.3836L235.204 15.5836L234.396 5.61635ZM207.618 12.825L211.218 55.025L221.182 54.175L217.582 11.975L207.618 12.825ZM216.586 59.5851L286.386 54.1851L285.614 44.2149L215.814 49.6149L216.586 59.5851ZM281.542 46.9352C268.571 72.4667 264.197 97.0742 269.326 119.514L279.074 117.286C274.603 97.7258 278.229 75.5333 290.458 51.4648L281.542 46.9352ZM269.332 119.541C275.798 147.129 296.632 168.518 329.62 184.5L333.98 175.5C302.568 160.282 284.602 140.871 279.068 117.259L269.332 119.541ZM336.151 182.464L352.351 153.864L343.649 148.936L327.449 177.536L336.151 182.464ZM358.115 101.683L352.515 71.6825L342.685 73.5175L348.285 103.517L358.115 101.683ZM346.629 67.6951L327.429 71.4951L329.371 81.3049L348.571 77.5049L346.629 67.6951ZM323.488 77.3356L329.088 106.736L338.912 104.864L333.312 75.4644L323.488 77.3356ZM334.822 110.732L354.022 107.532L352.378 97.668L333.178 100.868L334.822 110.732ZM385.122 103.32L379.722 73.1199L369.878 74.8801L375.278 105.08L385.122 103.32ZM373.77 69.1072L354.77 73.1072L356.83 82.8927L375.83 78.8927L373.77 69.1072ZM350.881 78.8973L356.281 108.497L366.119 106.703L360.719 77.1026L350.881 78.8973ZM362.081 112.522L381.081 109.122L379.319 99.2782L360.319 102.678L362.081 112.522ZM580 23.4H585V18.4H580V23.4ZM528 23.4L523.037 24.0053L523.573 28.4H528V23.4ZM524 0.399996L528.903 -0.580585L527.927 -5.45903L523.044 -4.50775L524 0.399996ZM493.2 6.39999L492.244 1.49224L487.254 2.46433L488.309 7.43751L493.2 6.39999ZM496.6 23.4L496.588 28.4L502.339 28.4139L501.553 22.7168L496.6 23.4ZM413.8 23.2L413.812 18.2L408.8 18.1879V23.2H413.8ZM413.8 53.2H408.8V58.2H413.8V53.2ZM498.8 53.2H503.8V48.2H498.8V53.2ZM498 64L496.638 68.811L502.318 70.4184L502.969 64.5521L498 64ZM464.2 64.2L462.694 59.4321L462.68 59.4367L462.665 59.4415L464.2 64.2ZM437.4 89.6L432.715 87.8531L432.708 87.8722L432.701 87.8913L437.4 89.6ZM441.4 123.4L445.614 120.709L445.611 120.705L441.4 123.4ZM493.2 138.2L495.106 142.822L495.152 142.803L495.198 142.783L493.2 138.2ZM512.2 120.8L517.195 121.017L518.024 101.96L507.954 118.16L512.2 120.8ZM502 150.2L499.661 154.619L504.183 157.013L506.472 152.436L502 150.2ZM491.8 144.8L494.139 140.381L489.743 138.054L487.393 142.438L491.8 144.8ZM481.4 164.2L476.993 161.838L474.542 166.41L479.202 168.691L481.4 164.2ZM519 182.6L516.802 187.091L521.008 189.149L523.337 185.087L519 182.6ZM534.8 94.2L530.513 96.7725L530.539 96.8167L530.566 96.8603L534.8 94.2ZM526.2 82.8L521.328 81.6757L520.705 84.376L522.664 86.3355L526.2 82.8ZM529.8 53.2V48.2H524.897L524.801 53.102L529.8 53.2ZM580 53.2V58.2H585V53.2H580ZM492.6 94.6L497.354 96.1479L498.727 91.932L494.706 90.065L492.6 94.6ZM481 110.4L479.143 105.758L478.991 105.819L478.843 105.889L481 110.4ZM467.6 107.4L471.905 104.856L471.896 104.842L471.887 104.828L467.6 107.4ZM473.8 93.2L475.174 98.0076L475.367 97.9523L475.556 97.8816L473.8 93.2ZM580 18.4H528V28.4H580V18.4ZM532.963 22.7947C531.936 14.3737 530.696 8.38585 528.903 -0.580585L519.097 1.38058C520.904 10.4141 522.064 16.0263 523.037 24.0053L532.963 22.7947ZM523.044 -4.50775L492.244 1.49224L494.156 11.3077L524.956 5.30774L523.044 -4.50775ZM488.309 7.43751C489.761 14.2828 490.88 18.5208 491.647 24.0832L501.553 22.7168C500.72 16.6792 499.439 11.7172 498.091 5.36247L488.309 7.43751ZM496.612 18.4L413.812 18.2L413.788 28.2L496.588 28.4L496.612 18.4ZM408.8 23.2V53.2H418.8V23.2H408.8ZM413.8 58.2H498.8V48.2H413.8V58.2ZM493.8 53.2C493.8 57.0653 493.44 59.7637 493.031 63.4478L502.969 64.5521C503.36 61.0363 503.8 57.7347 503.8 53.2H493.8ZM499.362 59.189C487.956 55.9611 475.15 55.4987 462.694 59.4321L465.706 68.9679C476.05 65.7013 486.844 66.0389 496.638 68.811L499.362 59.189ZM462.665 59.4415C448.828 63.9049 437.656 74.6022 432.715 87.8531L442.085 91.3469C445.944 80.9978 454.772 72.4951 465.735 68.9585L462.665 59.4415ZM432.701 87.8913C428.145 100.42 429.987 114.842 437.189 126.095L445.611 120.705C440.013 111.958 438.655 100.78 442.099 91.3087L432.701 87.8913ZM437.186 126.091C449.217 144.932 473.694 151.652 495.106 142.822L491.294 133.578C473.906 140.748 454.783 135.068 445.614 120.709L437.186 126.091ZM495.198 142.783C504.168 138.873 511.469 131.446 516.446 123.44L507.954 118.16C503.731 124.954 497.832 130.727 491.202 133.617L495.198 142.783ZM507.205 120.583C506.858 128.55 503.602 135.815 497.528 147.964L506.472 152.436C512.398 140.585 516.742 131.45 517.195 121.017L507.205 120.583ZM504.339 145.781L494.139 140.381L489.461 149.219L499.661 154.619L504.339 145.781ZM487.393 142.438L476.993 161.838L485.807 166.562L496.207 147.162L487.393 142.438ZM479.202 168.691L516.802 187.091L521.198 178.109L483.598 159.709L479.202 168.691ZM523.337 185.087C531.441 170.955 540.406 155.681 544.834 140.145C549.338 124.339 549.277 107.841 539.034 91.5397L530.566 96.8603C538.923 110.159 539.162 123.561 535.216 137.405C531.194 151.519 522.959 165.645 514.663 180.113L523.337 185.087ZM539.087 91.6275C536.584 87.4557 533.742 83.271 529.736 79.2645L522.664 86.3355C525.858 89.529 528.216 92.9443 530.513 96.7725L539.087 91.6275ZM531.072 83.9243C533.556 73.1582 534.593 63.8121 534.799 53.298L524.801 53.102C524.607 62.9879 523.644 71.6418 521.328 81.6757L531.072 83.9243ZM529.8 58.2H580V48.2H529.8V58.2ZM585 53.2V23.4H575V53.2H585ZM487.846 93.0521C485.198 101.185 482.054 104.593 479.143 105.758L482.857 115.042C489.946 112.207 494.402 105.215 497.354 96.1479L487.846 93.0521ZM478.843 105.889C475.686 107.399 472.736 106.263 471.905 104.856L463.295 109.944C467.664 117.337 477.114 117.801 483.157 114.911L478.843 105.889ZM471.887 104.828C471.05 103.431 471.112 102.107 471.722 100.886C472.402 99.5265 473.735 98.4186 475.174 98.0076L472.426 88.3924C468.265 89.5814 464.698 92.5735 462.778 96.4139C460.788 100.393 460.55 105.369 463.313 109.972L471.887 104.828ZM475.556 97.8816C480.305 96.1005 485.664 96.8924 490.494 99.135L494.706 90.065C488.336 87.1076 480.095 85.4995 472.044 88.5184L475.556 97.8816ZM742.2 125.2L737.226 124.691L737.224 124.707L737.223 124.723L742.2 125.2ZM730.4 75.2L734.255 72.0156L734.231 71.9873L734.208 71.9594L730.4 75.2ZM698 54.6L693.236 53.0831L691.804 57.5796L696.21 59.2687L698 54.6ZM712.2 9.99999L716.964 11.5169L718.516 6.64213L713.607 5.20215L712.2 9.99999ZM682.2 1.2L683.607 -3.59785L678.927 -4.97069L677.439 -0.326097L682.2 1.2ZM667.2 48L666.825 52.9859L670.758 53.2819L671.961 49.5261L667.2 48ZM603.6 55.4L602.226 50.5924L597.606 51.9125L598.742 56.5817L603.6 55.4ZM610.8 85L605.942 86.1818L607.138 91.0979L612.039 89.844L610.8 85ZM657 78.4L661.714 80.0658L664.032 73.5076L657.077 73.4006L657 78.4ZM626.4 165L621.686 163.334L620 168.106L624.791 169.734L626.4 165ZM657 175.4L655.391 180.134L660.125 181.743L661.734 177.009L657 175.4ZM688.4 83L690.353 78.3971L685.398 76.295L683.666 81.3912L688.4 83ZM703.8 94L699.862 97.0815L699.905 97.1364L699.95 97.1901L703.8 94ZM704.8 149.8L703.157 154.522L707.814 156.142L709.499 151.509L704.8 149.8ZM686.4 143.4L688.043 138.678L683.353 137.046L681.689 141.724L686.4 143.4ZM679 164.2L674.289 162.524L672.582 167.324L677.413 168.941L679 164.2ZM726.2 180L724.613 184.741L729.013 186.214L730.81 181.936L726.2 180ZM791 106V111H796V106H791ZM741 17L743.451 12.6421L739.119 10.2054L736.657 14.5228L741 17ZM725.6 44L721.257 41.5228L718.349 46.6208L723.844 48.6816L725.6 44ZM759.8 106H754.8V111H759.8V106ZM747.174 125.709C749.034 107.519 746.887 87.3069 734.255 72.0156L726.545 78.3844C736.713 90.6931 738.966 107.681 737.226 124.691L747.174 125.709ZM734.208 71.9594C725.395 61.6049 712.059 54.6343 699.79 49.9313L696.21 59.2687C707.941 63.7657 719.405 69.995 726.592 78.4406L734.208 71.9594ZM702.764 56.1169L716.964 11.5169L707.436 8.48309L693.236 53.0831L702.764 56.1169ZM713.607 5.20215L683.607 -3.59785L680.793 5.99784L710.793 14.7978L713.607 5.20215ZM677.439 -0.326097L662.439 46.4739L671.961 49.5261L686.961 2.72609L677.439 -0.326097ZM667.575 43.0141C648.328 41.5654 626.535 43.6469 602.226 50.5924L604.974 60.2076C628.265 53.5531 648.872 51.6346 666.825 52.9859L667.575 43.0141ZM598.742 56.5817L605.942 86.1818L615.658 83.8182L608.458 54.2182L598.742 56.5817ZM612.039 89.844C628.996 85.5061 644.525 83.2087 656.923 83.3994L657.077 73.4006C643.475 73.1913 627.004 75.6939 609.561 80.156L612.039 89.844ZM652.286 76.7342L621.686 163.334L631.114 166.666L661.714 80.0658L652.286 76.7342ZM624.791 169.734L655.391 180.134L658.609 170.666L628.009 160.266L624.791 169.734ZM661.734 177.009L693.134 84.6088L683.666 81.3912L652.266 173.791L661.734 177.009ZM686.447 87.6029C692.522 90.18 696.932 93.3368 699.862 97.0815L707.738 90.9184C703.468 85.4632 697.478 81.42 690.353 78.3971L686.447 87.6029ZM699.95 97.1901C704.719 102.946 706.629 110.595 706.352 119.571C706.075 128.563 703.605 138.456 700.101 148.091L709.499 151.509C713.195 141.344 716.025 130.337 716.348 119.879C716.671 109.405 714.481 99.0544 707.65 90.8099L699.95 97.1901ZM706.443 145.078L688.043 138.678L684.757 148.122L703.157 154.522L706.443 145.078ZM681.689 141.724L674.289 162.524L683.711 165.876L691.111 145.076L681.689 141.724ZM677.413 168.941L724.613 184.741L727.787 175.259L680.587 159.459L677.413 168.941ZM730.81 181.936C739.246 161.851 745.301 145.269 747.177 125.677L737.223 124.723C735.499 142.731 729.954 158.149 721.59 178.064L730.81 181.936ZM796 106C796 42.8978 746.953 14.612 743.451 12.6421L738.549 21.3579C741.447 22.988 786 48.7021 786 106H796ZM736.657 14.5228L721.257 41.5228L729.943 46.4772L745.343 19.4772L736.657 14.5228ZM723.844 48.6816C723.493 48.5499 723.764 48.6333 724.859 49.3246C725.773 49.9022 727.051 50.7704 728.567 51.9389C731.603 54.2779 735.544 57.7792 739.443 62.5062C747.212 71.927 754.8 86.1869 754.8 106H764.8C764.8 83.4131 756.088 66.973 747.157 56.1438C742.706 50.7458 738.197 46.7346 734.67 44.0174C732.906 42.6578 731.374 41.6119 730.199 40.8699C729.204 40.2416 728.107 39.6001 727.356 39.3184L723.844 48.6816ZM759.8 111H791V101H759.8V111Z"/></svg>